# xmcd
#
# Track frame offsets:
#	150
#	21621
#	42441
#	62211
#	82830
#	103757
#	119457
#	139179
#	169893
#	192035
#	214147
#	234619
#	254376
#	274483
#	294105
#	313965
#	333729
#
# Disc length: 4726 seconds
#
# Revision: 2
# Processed by: cddbd v1.5PL3 Copyright (c) Steve Scherf et al.
# Submitted via: EasyCDDAExtractor 6.2.0.3
#
DISCID=0d127411
DTITLE=Whitney Houston - My Love Is Your Love
DYEAR=1998
DGENRE=Pop
TTITLE0=It`s Not Right But It`s Okay
TTITLE1=Heartbreak Hotel
TTITLE2=My Love Is Your Love
TTITLE3=When You Belive
TTITLE4=If Told You That
TTITLE5=In My Business
TTITLE6=I Learned From The Best
TTITLE7=Oh Yes
TTITLE8=Get It Back
TTITLE9=Until You Come Back
TTITLE10=I Bow Out
TTITLE11=You`ll Never Stand Alone
TTITLE12=I was Made To Love Him
TTITLE13=My love Is Your Love (Wyclef Remix)
TTITLE14=Heartbreak Hotel (Hex Hector Radio Mix)
TTITLE15=It`s Not Right But It`s Okay (Johnny Vicious Radio Mix)
TTITLE16=My Love Is Your Love (Jonathan Peters` Tight Mix)
EXTD=
EXTT0=
EXTT1=
EXTT2=
EXTT3=
EXTT4=
EXTT5=
EXTT6=
EXTT7=
EXTT8=
EXTT9=
EXTT10=
EXTT11=
EXTT12=
EXTT13=
EXTT14=
EXTT15=
EXTT16=
PLAYORDER=
